<svg width="41" height="41" viewBox="0 0 41 41" fill="none" xmlns="http://www.w3.org/2000/svg">
<rect x="0.35" y="0.35" width="39.63" height="39.63" rx="6.66392" stroke="#9C97DE" stroke-width="0.7"/>
<path d="M18.4116 27.6173H21.9185C21.9185 28.5817 21.1295 29.3708 20.1651 29.3708C19.2007 29.3708 18.4116 28.5817 18.4116 27.6173ZM28.0557 25.8638V26.7405H12.2744V25.8638L14.0279 24.1103V18.8499C14.0279 16.132 15.7814 13.7648 18.4116 12.9757V12.7127C18.4116 11.7483 19.2007 10.9592 20.1651 10.9592C21.1295 10.9592 21.9185 11.7483 21.9185 12.7127V12.9757C24.5488 13.7648 26.3022 16.132 26.3022 18.8499V24.1103L28.0557 25.8638ZM24.5488 18.8499C24.5488 16.395 22.6199 14.4662 20.1651 14.4662C17.7102 14.4662 15.7814 16.395 15.7814 18.8499V24.9871H24.5488V18.8499Z" fill="#655BDE"/>
<circle cx="28.2848" cy="12.6662" r="5.67839" fill="#FF3131"/>
<path d="M29.7158 10.844H27.0938V12.5471C27.2084 12.3877 27.3777 12.2583 27.6018 12.1587C27.8259 12.0541 28.0674 12.0018 28.3264 12.0018C28.7397 12.0018 29.0758 12.0889 29.3348 12.2632C29.5937 12.4326 29.778 12.6542 29.8876 12.9281C30.0021 13.197 30.0594 13.4833 30.0594 13.7871C30.0594 14.1456 29.9921 14.4668 29.8577 14.7507C29.7232 15.0345 29.5166 15.2586 29.2377 15.423C28.9638 15.5873 28.6227 15.6695 28.2143 15.6695C27.6914 15.6695 27.2681 15.535 26.9444 15.2661C26.6208 14.9972 26.424 14.6386 26.3543 14.1905H27.0191C27.0839 14.4743 27.2208 14.6959 27.43 14.8553C27.6391 15.0146 27.9031 15.0943 28.2218 15.0943C28.6152 15.0943 28.9115 14.9773 29.1107 14.7432C29.3099 14.5042 29.4095 14.1905 29.4095 13.802C29.4095 13.4136 29.3099 13.1148 29.1107 12.9056C28.9115 12.6915 28.6177 12.5844 28.2293 12.5844C27.9653 12.5844 27.7338 12.6492 27.5346 12.7787C27.3403 12.9032 27.1984 13.075 27.1088 13.2941H26.4664V10.2464H29.7158V10.844Z" fill="white"/>
</svg>
