<svg width="41" height="41" viewBox="0 0 41 41" fill="none" xmlns="http://www.w3.org/2000/svg">
<rect x="0.813867" y="0.35" width="39.63" height="39.63" rx="6.66392" stroke="#9C97DE" stroke-width="0.7"/>
<g clip-path="url(#clip0_104_2512)">
<path d="M23.7414 21.0418C24.399 21.0418 24.9776 20.6824 25.2757 20.1388L28.4144 14.4488C28.7388 13.8701 28.318 13.1512 27.6517 13.1512H14.6759L13.8518 11.3977H10.9849V13.1512H12.7383L15.8946 19.8056L14.711 21.9449C14.071 23.1197 14.9127 24.5488 16.2453 24.5488H26.7662V22.7953H16.2453L17.2097 21.0418H23.7414ZM15.5088 14.9047H26.1612L23.7414 19.2884H17.5867L15.5088 14.9047ZM16.2453 25.4255C15.2809 25.4255 14.5006 26.2146 14.5006 27.179C14.5006 28.1434 15.2809 28.9325 16.2453 28.9325C17.2097 28.9325 17.9988 28.1434 17.9988 27.179C17.9988 26.2146 17.2097 25.4255 16.2453 25.4255ZM25.0127 25.4255C24.0483 25.4255 23.268 26.2146 23.268 27.179C23.268 28.1434 24.0483 28.9325 25.0127 28.9325C25.9771 28.9325 26.7662 28.1434 26.7662 27.179C26.7662 26.2146 25.9771 25.4255 25.0127 25.4255Z" fill="#655BDE"/>
</g>
<defs>
<clipPath id="clip0_104_2512">
<rect width="21.0417" height="21.0417" fill="white" transform="translate(10.1079 9.64404)"/>
</clipPath>
</defs>
</svg>
