<svg width="90" height="36" viewBox="0 0 90 36" fill="none" xmlns="http://www.w3.org/2000/svg">
<path d="M61.6162 10.3583L57.3799 4.55771L60.4712 0.690674H68.2568L61.6162 10.3583Z" fill="#1E1E1E"/>
<path d="M68.2568 23.55L61.6162 14.1099L57.3799 19.4555L60.5857 23.55H68.2568Z" fill="#1E1E1E"/>
<path d="M83.2549 23.6654V6.60496H89.6666V0.690674H69.7446V6.60496H76.3853V23.6654H83.2549Z" fill="#1E1E1E"/>
<path d="M0.362305 23.4379V0.690674H6.77396L15.2465 12.5192V0.690674H42.6105V6.60496H21.8871V23.4379H15.2465L6.54497 11.6433V23.4379H0.362305Z" fill="#1E1E1E"/>
<path d="M42.4958 17.9798V23.4391H24.4058V8.88086H36.3131V14.7951H30.5884V17.9798H42.4958Z" fill="#1E1E1E"/>
<path d="M51.8838 0.690674H44.5562H44.3272L50.5099 8.87968H38.8315V14.794H50.5099L44.5562 23.6654H51.6549L59.8984 12.0643L51.8838 0.690674Z" fill="#1E1E1E"/>
<path d="M6.77822 31.4107C6.77822 31.7208 6.7007 31.9855 6.54566 32.205C6.393 32.422 6.17832 32.5878 5.90163 32.7023C5.62493 32.8168 5.29934 32.874 4.92485 32.874C4.72687 32.874 4.53963 32.8645 4.36312 32.8454C4.1866 32.8263 4.02441 32.7989 3.87652 32.7631C3.72863 32.7274 3.59863 32.6832 3.48652 32.6307V32.0475C3.66542 32.1215 3.88367 32.1907 4.14128 32.2551C4.3989 32.3171 4.66843 32.3481 4.9499 32.3481C5.21228 32.3481 5.43411 32.3135 5.61539 32.2443C5.79667 32.1728 5.93383 32.0714 6.02685 31.9402C6.12227 31.8066 6.16997 31.6468 6.16997 31.4608C6.16997 31.2819 6.13061 31.1328 6.0519 31.0135C5.97319 30.8919 5.84199 30.7822 5.65833 30.6844C5.47705 30.5842 5.22898 30.478 4.91412 30.3659C4.69229 30.2872 4.49669 30.2013 4.32734 30.1083C4.15798 30.0129 4.01606 29.9056 3.90156 29.7863C3.78707 29.667 3.70001 29.5287 3.64037 29.3713C3.58313 29.2138 3.5545 29.0337 3.5545 28.831C3.5545 28.5519 3.62487 28.3134 3.7656 28.1154C3.90872 27.915 4.10551 27.7624 4.35596 27.6574C4.6088 27.5501 4.89861 27.4964 5.2254 27.4964C5.50448 27.4964 5.76209 27.5227 5.99823 27.5751C6.23676 27.6276 6.45501 27.698 6.65299 27.7862L6.46336 28.3086C6.27492 28.2299 6.07456 28.1643 5.86227 28.1118C5.65236 28.0593 5.4353 28.0331 5.21109 28.0331C4.98687 28.0331 4.79724 28.0665 4.64219 28.1333C4.48954 28.1977 4.37266 28.2895 4.29156 28.4088C4.21046 28.5281 4.16991 28.67 4.16991 28.8346C4.16991 29.0182 4.20807 29.1709 4.2844 29.2925C4.36312 29.4142 4.48715 29.5227 4.65651 29.6181C4.82825 29.7112 5.05485 29.809 5.33631 29.9115C5.64402 30.0236 5.90521 30.1429 6.11988 30.2693C6.33456 30.3933 6.49795 30.546 6.61006 30.7273C6.72217 30.9062 6.77822 31.134 6.77822 31.4107ZM23.5968 32.8025H22.985V28.1082H21.3391V27.5716H25.2355V28.1082H23.5968V32.8025ZM44.7053 30.1799C44.7053 30.583 44.654 30.9503 44.5515 31.2819C44.4489 31.611 44.2962 31.8949 44.0935 32.1334C43.8931 32.3696 43.6439 32.552 43.3457 32.6808C43.0475 32.8096 42.7017 32.874 42.3081 32.874C41.9026 32.874 41.5484 32.8096 41.2454 32.6808C40.9449 32.552 40.6944 32.3684 40.4941 32.1298C40.2961 31.8913 40.147 31.6063 40.0468 31.2747C39.949 30.9432 39.9001 30.5758 39.9001 30.1727C39.9001 29.6384 39.9884 29.1697 40.1649 28.7666C40.3414 28.3635 40.6086 28.0498 40.9664 27.8256C41.3265 27.6014 41.7774 27.4893 42.3188 27.4893C42.8364 27.4893 43.2717 27.6002 43.6248 27.822C43.9802 28.0438 44.2485 28.3563 44.4298 28.7594C44.6135 29.1602 44.7053 29.6336 44.7053 30.1799ZM40.5406 30.1799C40.5406 30.6235 40.6038 31.0076 40.7302 31.332C40.8566 31.6564 41.0499 31.9068 41.3098 32.0833C41.5722 32.2598 41.905 32.3481 42.3081 32.3481C42.7136 32.3481 43.0451 32.2598 43.3028 32.0833C43.5628 31.9068 43.7548 31.6564 43.8788 31.332C44.0028 31.0076 44.0649 30.6235 44.0649 30.1799C44.0649 29.5048 43.9229 28.9777 43.6391 28.5984C43.3576 28.2168 42.9175 28.026 42.3188 28.026C41.9133 28.026 41.5794 28.113 41.317 28.2871C41.0546 28.4613 40.859 28.7093 40.7302 29.0313C40.6038 29.351 40.5406 29.7338 40.5406 30.1799ZM61.4273 27.5716C61.8566 27.5716 62.2108 27.6252 62.4899 27.7326C62.7714 27.8375 62.9813 27.9985 63.1196 28.2156C63.258 28.4326 63.3272 28.7093 63.3272 29.0457C63.3272 29.3224 63.2771 29.5537 63.1769 29.7398C63.0767 29.9234 62.9455 30.0725 62.7833 30.187C62.6211 30.3015 62.4482 30.3898 62.2645 30.4518L63.6993 32.8025H62.9908L61.7099 30.62H60.6222V32.8025H60.014V27.5716H61.4273ZM61.3915 28.0975H60.6222V30.1047H61.4523C61.8793 30.1047 62.193 30.0177 62.3933 29.8435C62.5961 29.6694 62.6974 29.413 62.6974 29.0743C62.6974 28.7189 62.5901 28.4672 62.3754 28.3193C62.1631 28.1715 61.8352 28.0975 61.3915 28.0975ZM81.5912 32.8025H78.6788V27.5716H81.5912V28.1082H79.287V29.8006H81.4588V30.3301H79.287V32.2658H81.5912V32.8025Z" fill="#FF0101"/>
</svg>
