<svg width="41" height="41" viewBox="0 0 41 41" fill="none" xmlns="http://www.w3.org/2000/svg">
<rect x="0.35" y="0.35" width="39.63" height="39.63" rx="6.66392" stroke="#9C97DE" stroke-width="0.7"/>
<g clip-path="url(#clip0_104_2511)">
<path d="M24.1102 12.2744C22.5847 12.2744 21.1205 12.9846 20.1649 14.1068C19.2092 12.9846 17.7451 12.2744 16.2195 12.2744C13.5192 12.2744 11.3975 14.3961 11.3975 17.0965C11.3975 20.4106 14.3784 23.1109 18.8936 27.2141L20.1649 28.3626L21.4361 27.2053C25.9513 23.1109 28.9323 20.4106 28.9323 17.0965C28.9323 14.3961 26.8105 12.2744 24.1102 12.2744ZM20.2525 25.9077L20.1649 25.9954L20.0772 25.9077C15.9039 22.129 13.1509 19.6303 13.1509 17.0965C13.1509 15.343 14.466 14.0279 16.2195 14.0279C17.5697 14.0279 18.8848 14.8959 19.3495 16.097H20.989C21.4449 14.8959 22.76 14.0279 24.1102 14.0279C25.8637 14.0279 27.1788 15.343 27.1788 17.0965C27.1788 19.6303 24.4258 22.129 20.2525 25.9077Z" fill="#655BDE"/>
</g>
<defs>
<clipPath id="clip0_104_2511">
<rect width="21.0417" height="21.0417" fill="white" transform="translate(9.64404 9.64404)"/>
</clipPath>
</defs>
</svg>
